<svg width="987" height="1666" viewBox="0 0 987 1666" fill="none" xmlns="http://www.w3.org/2000/svg">
<g opacity="0.1">
<path d="M427.342 1143.83C436.76 1110.71 441.404 1077.42 440 1045.13C414.049 1057.4 387.146 1066.05 361.679 1071.16C327.139 1077.76 293.002 1078.4 260.462 1073.13C255.834 1088.5 248.818 1103.79 238.778 1119.57C225.473 1139.43 207.312 1160.31 183.104 1182.19C52.5042 1300.2 -33.787 1249.53 -128.387 1144.84L-360.433 888.043L-54.6395 611.721L111.188 795.234C188.537 880.833 262.497 928.103 356.672 879.92C364.075 876.587 372.196 871.486 379.68 866.961C368.316 849.263 354.485 832.676 340.017 816.664L-64.5349 368.965L-602.223 854.833L-197.671 1302.53C-71.3526 1442.32 125.389 1487.15 308.228 1321.94C371.298 1264.94 408.909 1204.11 427.342 1143.83Z" fill="#005E94"/>
<path opacity="0.3" d="M550.008 969.65C513.695 1002.46 476.752 1026.9 439.657 1044.76C413.706 1057.02 386.803 1065.67 361.336 1070.78C326.796 1077.38 292.659 1078.03 260.119 1072.75C229.885 1068.75 200.611 1059.41 172.772 1046.53C125.207 1024.63 81.9487 992.121 44.6654 950.862L-169.018 714.388L-54.9825 611.342L110.845 794.856C188.194 880.455 262.154 927.725 356.329 879.542C363.732 876.208 371.853 871.107 379.337 866.582C393.747 856.916 408.876 845.483 424.803 831.091C555.402 713.078 513.706 622.111 419.106 517.422L252.723 333.292L60.9644 506.57L-64.2408 368.011L243.464 89.9612L582.353 464.994C708.115 604.169 732.847 804.432 550.008 969.65Z" fill="#005E94"/>
</g>
</svg>
