<svg width="1440" height="526" viewBox="0 0 1440 526" fill="none" xmlns="http://www.w3.org/2000/svg">
<mask id="mask0_819:389" style="mask-type:alpha" maskUnits="userSpaceOnUse" x="0" y="0" width="1440" height="526">
<rect width="1440" height="526" fill="#005E94"/>
</mask>
<g mask="url(#mask0_819:389)">
<g opacity="0.1">
<path d="M1252.34 355.827C1261.76 322.706 1266.4 289.425 1265 257.134C1239.05 269.398 1212.15 278.046 1186.68 283.161C1152.14 289.761 1118 290.404 1085.46 285.13C1080.83 300.499 1073.82 315.788 1063.78 331.572C1050.47 351.426 1032.31 372.31 1008.1 394.186C877.504 512.199 791.213 461.528 696.613 356.839L464.566 100.043L770.36 -176.279L936.188 7.23431C1013.54 92.8329 1087.5 140.103 1181.67 91.9201C1189.07 88.5865 1197.2 83.4858 1204.68 78.9607C1193.32 61.2626 1179.48 44.6756 1165.02 28.6644L760.465 -419.035L222.777 66.8326L627.329 514.532C753.647 654.322 950.389 699.154 1133.23 533.936C1196.3 476.945 1233.91 416.111 1252.34 355.827Z" fill="white"/>
<path opacity="0.3" d="M1375.01 181.65C1338.69 214.464 1301.75 238.896 1264.66 256.756C1238.71 269.019 1211.8 277.668 1186.34 282.782C1151.8 289.383 1117.66 290.026 1085.12 284.752C1054.89 280.749 1025.61 271.405 997.772 258.527C950.207 236.626 906.949 204.121 869.665 162.862L655.982 -73.6124L770.017 -176.658L935.845 6.85589C1013.19 92.4545 1087.15 139.725 1181.33 91.5417C1188.73 88.2081 1196.85 83.1073 1204.34 78.5823C1218.75 68.9162 1233.88 57.4831 1249.8 43.0913C1380.4 -74.9215 1338.71 -165.889 1244.11 -270.578L1077.72 -454.708L885.964 -281.43L760.759 -419.989L1068.46 -698.039L1407.35 -323.006C1533.11 -183.831 1557.85 16.4322 1375.01 181.65Z" fill="white"/>
</g>
</g>
</svg>
