<svg width="1240" height="304" viewBox="0 0 1240 304" fill="none" xmlns="http://www.w3.org/2000/svg">
<mask id="mask0_748:26" style="mask-type:alpha" maskUnits="userSpaceOnUse" x="0" y="0" width="1240" height="304">
<rect width="1240" height="304" rx="12" fill="#005E94"/>
</mask>
<g mask="url(#mask0_748:26)">
<g opacity="0.32">
<g opacity="0.2">
<path d="M814.422 306.154C777.32 282.112 744.583 253.699 718.393 220.915C753.313 209.987 786.05 194.688 814.422 177.203C852.615 153.161 885.352 123.656 911.541 89.7788C929.001 100.707 948.643 109.449 971.559 116.006C1001.02 123.656 1035.94 128.027 1077.41 128.027C1301.11 128.027 1339.3 2.35467 1339.3 -183.422L1339.3 -639.12L815.513 -639.12L815.513 -313.465C815.513 -161.566 786.05 -50.0998 656.193 -14.0374C646.372 -10.759 634.368 -8.5733 623.456 -6.3877C619.091 -33.7077 618 -62.1206 618 -90.5334L618 -885L1539 -885L1539 -90.5335C1539 157.532 1391.68 375 1078.5 375C970.468 375 883.169 348.773 814.422 306.154Z" fill="white"/>
</g>
<g opacity="0.4">
<path d="M550.5 244C612.7 244 668.353 235.257 718.55 219.958C753.469 209.029 786.206 193.729 814.578 176.244C852.771 152.201 885.508 122.695 911.698 88.8165C936.796 58.2168 956.438 23.246 971.716 -13.9107C997.905 -77.2956 1011 -147.238 1011 -220.458L1011 -640.11L815.669 -640.11L815.669 -314.443C815.669 -162.537 786.206 -51.0675 656.35 -15.0037C646.528 -11.7252 634.525 -9.53937 623.613 -7.35371C601.788 -4.0752 577.781 -1.88947 550.5 -1.88947C326.797 -1.88947 288.604 -127.566 288.604 -313.35L288.604 -640.11L617.065 -640.11L617.065 -886L90 -886L90 -220.458C90 26.5245 237.316 244 550.5 244Z" fill="white"/>
</g>
</g>
</g>
</svg>
