<svg width="834" height="1666" viewBox="0 0 834 1666" fill="none" xmlns="http://www.w3.org/2000/svg">
<g opacity="0.1">
<path d="M1149.34 1143.83C1158.76 1110.71 1163.4 1077.42 1162 1045.13C1136.05 1057.4 1109.15 1066.05 1083.68 1071.16C1049.14 1077.76 1015 1078.4 982.462 1073.13C977.833 1088.5 970.818 1103.79 960.778 1119.57C947.473 1139.43 929.312 1160.31 905.103 1182.19C774.504 1300.2 688.213 1249.53 593.613 1144.84L361.566 888.043L667.36 611.721L833.188 795.234C910.537 880.833 984.497 928.103 1078.67 879.92C1086.07 876.587 1094.2 871.486 1101.68 866.961C1090.32 849.263 1076.48 832.676 1062.02 816.664L657.465 368.965L119.777 854.833L524.329 1302.53C650.647 1442.32 847.389 1487.15 1030.23 1321.94C1093.3 1264.94 1130.91 1204.11 1149.34 1143.83Z" fill="#005E94"/>
<path opacity="0.3" d="M1272.01 969.65C1235.69 1002.46 1198.75 1026.9 1161.66 1044.76C1135.71 1057.02 1108.8 1065.67 1083.34 1070.78C1048.8 1077.38 1014.66 1078.03 982.119 1072.75C951.885 1068.75 922.611 1059.41 894.772 1046.53C847.207 1024.63 803.949 992.121 766.665 950.862L552.982 714.388L667.017 611.342L832.845 794.856C910.194 880.455 984.154 927.725 1078.33 879.542C1085.73 876.208 1093.85 871.107 1101.34 866.582C1115.75 856.916 1130.88 845.483 1146.8 831.091C1277.4 713.078 1235.71 622.111 1141.11 517.422L974.723 333.292L782.964 506.57L657.759 368.011L965.464 89.9612L1304.35 464.994C1430.11 604.169 1454.85 804.432 1272.01 969.65Z" fill="#005E94"/>
</g>
</svg>
