<svg width="1063" height="825" viewBox="0 0 1063 825" fill="none" xmlns="http://www.w3.org/2000/svg">
<g opacity="0.32">
<g opacity="0.2">
<path d="M724.422 756.153C687.32 732.112 654.583 703.699 628.393 670.915C663.313 659.987 696.05 644.688 724.422 627.203C762.615 603.161 795.352 573.656 821.541 539.779C839.001 550.707 858.643 559.449 881.559 566.006C911.023 573.656 945.942 578.027 987.409 578.027C1211.11 578.027 1249.3 452.355 1249.3 266.578L1249.3 -189.12L725.513 -189.12L725.513 136.535C725.513 288.434 696.05 399.9 566.193 435.963C556.372 439.241 544.368 441.427 533.456 443.612C529.091 416.292 528 387.879 528 359.466L528 -435L1449 -435L1449 359.466C1449 607.532 1301.68 825 988.5 825C880.468 825 793.169 798.773 724.422 756.153Z" fill="#005E94"/>
</g>
<g opacity="0.4">
<path d="M460.5 694C522.7 694 578.353 685.257 628.55 669.958C663.469 659.029 696.206 643.729 724.578 626.244C762.771 602.201 795.508 572.695 821.698 538.816C846.796 508.217 866.438 473.246 881.716 436.089C907.905 372.704 921 302.762 921 229.542L921 -190.11L725.669 -190.11L725.669 135.557C725.669 287.462 696.206 398.932 566.35 434.996C556.528 438.275 544.525 440.461 533.613 442.646C511.788 445.925 487.781 448.11 460.5 448.11C236.797 448.11 198.604 322.433 198.604 136.65L198.604 -190.11L527.065 -190.11L527.065 -436L0 -436L7.65958e-06 229.542C1.0502e-05 476.524 147.316 694 460.5 694Z" fill="#005E94"/>
</g>
</g>
</svg>
