<svg width="620" height="540" viewBox="0 0 620 540" fill="none" xmlns="http://www.w3.org/2000/svg">
<mask id="mask0_754:460" style="mask-type:alpha" maskUnits="userSpaceOnUse" x="0" y="0" width="620" height="540">
<rect width="620" height="540" rx="12" fill="#F5F9FB"/>
</mask>
<g mask="url(#mask0_754:460)">
<mask id="mask1_754:460" style="mask-type:alpha" maskUnits="userSpaceOnUse" x="-176" y="-180" width="796" height="688">
<rect x="-176" y="-179.832" width="796" height="686.871" rx="12" fill="#005E94"/>
</mask>
<g mask="url(#mask1_754:460)">
<g opacity="0.32">
<g opacity="0.2">
<path d="M402.655 422.401C378.838 406.968 357.823 388.729 341.011 367.684C363.427 360.669 384.442 350.848 402.655 339.624C427.172 324.19 448.187 305.25 464.999 283.503C476.207 290.518 488.816 296.13 503.527 300.339C522.44 305.25 544.856 308.056 571.475 308.056C715.078 308.056 739.595 227.382 739.595 108.126L739.595 -184.403L403.355 -184.403L403.355 24.6465C403.355 122.156 384.442 193.71 301.082 216.86C294.777 218.964 287.072 220.367 280.067 221.77C277.265 204.233 276.564 185.993 276.564 167.754L276.564 -342.242L867.787 -342.242L867.787 167.754C867.787 326.996 773.219 466.596 572.176 466.596C502.826 466.596 446.786 449.76 402.655 422.401Z" fill="white"/>
</g>
<g opacity="0.4">
<path d="M233.234 382.503C273.162 382.503 308.888 376.891 341.111 367.069C363.527 360.054 384.542 350.232 402.755 339.008C427.273 323.574 448.288 304.633 465.1 282.885C481.211 263.242 493.82 240.793 503.627 216.941C520.439 176.252 528.845 131.354 528.845 84.3507L528.845 -185.039L403.456 -185.039L403.456 24.0187C403.456 121.532 384.542 193.089 301.182 216.239C294.878 218.344 287.172 219.747 280.167 221.15C266.157 223.255 250.746 224.658 233.234 224.658C89.6312 224.658 65.1137 143.981 65.1137 24.7203L65.1137 -185.039L275.964 -185.039L275.964 -342.884L-62.3774 -342.884L-62.3774 84.3507C-62.3774 242.898 32.1902 382.503 233.234 382.503Z" fill="white"/>
</g>
</g>
</g>
</g>
</svg>
