<svg width="60" height="60" viewBox="0 0 60 60" fill="none" xmlns="http://www.w3.org/2000/svg">
<path fill-rule="evenodd" clip-rule="evenodd" d="M56.25 30C56.25 23.0381 53.4844 16.3613 48.5616 11.4384C43.6387 6.51562 36.9619 3.75 30 3.75C23.0381 3.75 16.3613 6.51561 11.4385 11.4384C6.51562 16.3613 3.75 23.0381 3.75 30C3.75 36.9619 6.51562 43.6387 11.4385 48.5615C16.3613 53.4844 23.0381 56.25 30 56.25C36.9619 56.25 43.6387 53.4844 48.5616 48.5616C53.4844 43.6387 56.25 36.9619 56.25 30ZM2.62268e-06 30C3.31826e-06 22.0435 3.16071 14.4129 8.7868 8.78679C14.4129 3.1607 22.0435 -3.31826e-06 30 -2.62268e-06C37.9565 -1.9271e-06 45.5871 3.1607 51.2132 8.7868C56.8393 14.4129 60 22.0435 60 30C60 37.9565 56.8393 45.5871 51.2132 51.2132C45.5871 56.8393 37.9565 60 30 60C22.0435 60 14.4129 56.8393 8.7868 51.2132C3.16071 45.5871 1.9271e-06 37.9565 2.62268e-06 30ZM43.125 31.875C43.6223 31.875 44.0992 31.6775 44.4508 31.3258C44.8025 30.9742 45 30.4973 45 30C45 29.5027 44.8025 29.0258 44.4508 28.6742C44.0992 28.3225 43.6223 28.125 43.125 28.125L21.4013 28.125L29.4525 20.0775C29.6268 19.9032 29.7651 19.6962 29.8595 19.4684C29.9538 19.2407 30.0024 18.9965 30.0024 18.75C30.0024 18.5035 29.9538 18.2593 29.8595 18.0316C29.7651 17.8038 29.6268 17.5968 29.4525 17.4225C29.2782 17.2482 29.0712 17.1099 28.8434 17.0155C28.6157 16.9212 28.3715 16.8726 28.125 16.8726C27.8785 16.8726 27.6343 16.9212 27.4066 17.0155C27.1788 17.1099 26.9718 17.2482 26.7975 17.4225L15.5475 28.6725C15.3729 28.8467 15.2344 29.0536 15.1398 29.2814C15.0453 29.5092 14.9967 29.7534 14.9967 30C14.9967 30.2466 15.0453 30.4908 15.1398 30.7186C15.2344 30.9464 15.3729 31.1533 15.5475 31.3275L26.7975 42.5775C26.9718 42.7518 27.1788 42.8901 27.4066 42.9845C27.6343 43.0788 27.8785 43.1274 28.125 43.1274C28.3715 43.1274 28.6157 43.0788 28.8434 42.9845C29.0712 42.8901 29.2782 42.7518 29.4525 42.5775C29.6268 42.4032 29.7651 42.1962 29.8595 41.9684C29.9538 41.7407 30.0024 41.4965 30.0024 41.25C30.0024 41.0035 29.9538 40.7593 29.8595 40.5316C29.7651 40.3038 29.6268 40.0968 29.4525 39.9225L21.4013 31.875L43.125 31.875Z" fill="white" fill-opacity="0.7"/>
</svg>
