<svg width="1240" height="897" viewBox="0 0 1240 897" fill="none" xmlns="http://www.w3.org/2000/svg">
<mask id="mask0_755:512" style="mask-type:alpha" maskUnits="userSpaceOnUse" x="0" y="0" width="1240" height="897">
<rect width="1240" height="897" rx="12" fill="#F5F9FB"/>
</mask>
<g mask="url(#mask0_755:512)">
<mask id="mask1_755:512" style="mask-type:alpha" maskUnits="userSpaceOnUse" x="0" y="-182" width="1240" height="1070">
<rect y="-182" width="1240" height="1070" rx="12" fill="#005E94"/>
</mask>
<g mask="url(#mask1_755:512)">
<g opacity="0.32">
<g opacity="0.2">
<path d="M901.422 756.153C864.32 732.112 831.583 703.699 805.393 670.915C840.313 659.987 873.05 644.688 901.422 627.203C939.615 603.161 972.352 573.656 998.541 539.779C1016 550.707 1035.64 559.449 1058.56 566.006C1088.02 573.656 1122.94 578.027 1164.41 578.027C1388.11 578.027 1426.3 452.355 1426.3 266.578L1426.3 -189.12L902.513 -189.12L902.513 136.535C902.513 288.434 873.05 399.9 743.193 435.963C733.372 439.241 721.368 441.427 710.456 443.612C706.091 416.292 705 387.879 705 359.466L705 -435L1626 -435L1626 359.466C1626 607.532 1478.68 825 1165.5 825C1057.47 825 970.169 798.773 901.422 756.153Z" fill="white"/>
</g>
<g opacity="0.4">
<path d="M637.5 694C699.7 694 755.353 685.257 805.55 669.958C840.469 659.029 873.206 643.729 901.578 626.244C939.771 602.201 972.508 572.694 998.698 538.816C1023.8 508.217 1043.44 473.246 1058.72 436.089C1084.91 372.704 1098 302.762 1098 229.542L1098 -190.11L902.669 -190.11L902.669 135.557C902.669 287.462 873.206 398.932 743.35 434.996C733.528 438.275 721.525 440.46 710.613 442.646C688.788 445.925 664.781 448.11 637.5 448.11C413.797 448.11 375.604 322.433 375.604 136.65L375.604 -190.11L704.065 -190.11L704.065 -436L177 -436L177 229.542C177 476.524 324.316 694 637.5 694Z" fill="white"/>
</g>
</g>
</g>
</g>
</svg>
