<svg width="1440" height="709" viewBox="0 0 1440 709" fill="none" xmlns="http://www.w3.org/2000/svg">
<mask id="mask0_819:178" style="mask-type:alpha" maskUnits="userSpaceOnUse" x="0" y="0" width="1440" height="709">
<rect width="1440" height="709" rx="12" fill="#F5F9FB"/>
</mask>
<g mask="url(#mask0_819:178)">
<mask id="mask1_819:178" style="mask-type:alpha" maskUnits="userSpaceOnUse" x="0" y="-144" width="1440" height="846">
<rect y="-143.855" width="1440" height="845.741" rx="12" fill="#005E94"/>
</mask>
<g mask="url(#mask1_819:178)">
<g opacity="0.32">
<g opacity="0.2">
<path d="M1002.6 597.673C965.342 578.67 932.468 556.213 906.169 530.3C941.234 521.662 974.108 509.569 1002.6 495.749C1040.95 476.746 1073.83 453.425 1100.13 426.648C1117.66 435.286 1137.38 442.196 1160.39 447.378C1189.98 453.425 1225.05 456.88 1266.69 456.88C1491.33 456.88 1529.68 357.547 1529.68 210.707L1529.68 -149.482L1003.69 -149.482L1003.69 107.919C1003.69 227.982 974.108 316.086 843.708 344.59C833.846 347.182 821.792 348.909 810.834 350.637C806.451 329.043 805.355 306.585 805.355 284.127L805.355 -343.829L1730.21 -343.829L1730.21 284.127C1730.21 480.201 1582.28 652.09 1267.78 652.09C1159.3 652.09 1071.63 631.36 1002.6 597.673Z" fill="#005E94"/>
</g>
<g opacity="0.4">
<path d="M737.573 548.547C800.034 548.547 855.919 541.636 906.326 529.543C941.392 520.905 974.266 508.812 1002.76 494.991C1041.11 475.987 1073.98 452.665 1100.28 425.887C1125.49 401.701 1145.21 374.06 1160.55 344.69C1186.85 294.59 1200 239.307 1200 181.433L1200 -150.265L1003.85 -150.265L1003.85 107.146C1003.85 227.214 974.266 315.321 843.866 343.827C834.003 346.418 821.95 348.146 810.992 349.873C789.076 352.465 764.968 354.192 737.573 354.192C512.935 354.192 474.582 254.856 474.582 108.01L474.582 -150.265L804.417 -150.265L804.417 -344.62L275.146 -344.62L275.146 181.433C275.146 376.651 423.079 548.547 737.573 548.547Z" fill="#005E94"/>
</g>
</g>
</g>
</g>
</svg>
